General
Complete name                    : C:\Dokumente und Einstellungen\jaZz_KCS\Desktop\Neuer Ordner (2)\BBC.The.Sky.at.Night.2011.Final.Frontier.Xvid.MP3.[KCS].avi
Format                           : AVI
Format/Info                      : Audio Video Interleave
File size                        : 204 MiB
Duration                         : 19mn 57s
Overall bit rate                 : 1 432 Kbps

Video
ID                               : 0
Format                           : MPEG-4 Visual
Format profile                   : Advanced Simple@L5
Format settings, BVOP            : Yes
Format settings, QPel            : No
Format settings, GMC             : No warppoints
Format settings, Matrix          : Default (H.263)
Muxing mode                      : Packed bitstream
Codec ID                         : XVID
Codec ID/Hint                    : XviD
Duration                         : 19mn 57s
Bit rate                         : 1 329 Kbps
Width                            : 1 024 pixels
Height                           : 600 pixels
Display aspect ratio             : 16:9
Frame rate                       : 25.000 fps
Color space                      : YUV
Chroma subsampling               : 4:2:0
Bit depth                        : 8 bits
Scan type                        : Progressive
Compression mode                 : Lossy
Bits/(Pixel*Frame)               : 0.087
Stream size                      : 190 MiB (93%)
Writing library                  : XviD 64

Audio
ID                               : 1
Format                           : MPEG Audio
Format version                   : Version 1
Format profile                   : Layer 3
Mode                             : Joint stereo
Mode extension                   : MS Stereo
Codec ID                         : 55
Codec ID/Hint                    : MP3
Duration                         : 19mn 57s
Bit rate mode                    : Constant
Bit rate                         : 96.0 Kbps
Channel(s)                       : 2 channels
Sampling rate                    : 32.0 KHz
Compression mode                 : Lossy
Stream size                      : 13.7 MiB (7%)
Alignment                        : Aligned on interleaves
Interleave, duration             : 36 ms (0.90 video frame)
Interleave, preload duration     : 432 ms

